<svg 
    xmlns="http://www.w3.org/2000/svg" 
    xmlns:xlink="http://www.w3.org/1999/xlink" version="1.1" x="0px" y="0px" viewBox="0 0 100 125" style="fill: white;" xml:space="preserve">
    <path stroke="white" d="M52.946,77.39L42.647,35.406l2.368-0.581c0.356-0.088,0.636-0.363,0.729-0.719c0.093-0.355-0.016-0.732-0.284-0.983  L29.778,18.464c-0.25-0.235-0.606-0.324-0.935-0.237c-0.332,0.087-0.596,0.337-0.701,0.663l-6.423,20.083  c-0.11,0.345-0.025,0.723,0.222,0.987c0.191,0.205,0.458,0.317,0.731,0.317c0.079,0,0.159-0.01,0.238-0.028l2.37-0.581L35.579,81.65  c0.063,0.258,0.226,0.479,0.453,0.617c0.157,0.096,0.337,0.145,0.518,0.145c0.08,0,0.16-0.01,0.238-0.028l6.951-1.705l2.051,8.36  c0.112,0.456,0.521,0.762,0.97,0.762c0.079,0,0.159-0.009,0.239-0.028c0.537-0.132,0.865-0.674,0.733-1.21l-2.051-8.36l6.531-1.602  C52.75,78.468,53.078,77.926,52.946,77.39z M32.546,60.895l10.969-13.554l1.891,7.71L34.438,68.606L32.546,60.895z M30.056,50.746  L41.025,37.19l1.892,7.711L31.948,58.456L30.056,50.746z M29.566,21.004l13.179,12.318l-18.577,4.559L29.566,21.004z M39.215,36.248  l-9.757,12.058l-2.236-9.115L39.215,36.248z M35.036,71.045L46.005,57.49l1.892,7.71L36.928,78.756L35.036,71.045z M38.588,79.883  l9.907-12.243l2.27,9.255L38.588,79.883z"/>
    <path stroke="white" d="M60.622,83.249c0.044,0.006,0.087,0.009,0.131,0.009c0.495,0,0.924-0.367,0.99-0.87l1.116-8.536l6.668,0.872  c0.044,0.006,0.087,0.009,0.131,0.009c0.495,0,0.924-0.367,0.99-0.87l5.604-42.865l2.418,0.316c0.043,0.006,0.086,0.009,0.129,0.009  c0.318,0,0.621-0.152,0.81-0.414c0.215-0.298,0.25-0.688,0.091-1.02l-9.309-19.344c-0.148-0.309-0.445-0.521-0.785-0.56  c-0.35-0.046-0.678,0.098-0.893,0.364l-13.26,16.394c-0.228,0.281-0.286,0.664-0.151,1c0.135,0.336,0.44,0.573,0.799,0.62  l2.419,0.316l-5.604,42.864c-0.034,0.264,0.037,0.529,0.199,0.739s0.4,0.348,0.664,0.382l7.097,0.928l-1.116,8.535  C59.688,82.676,60.074,83.178,60.622,83.249z M68.794,72.611l-12.433-1.626l13.669-7.824L68.794,72.611z M58.96,40.737l15.133-8.663  l-1.029,7.872l-15.133,8.662L58.96,40.737z M57.606,51.099l15.133-8.662l-1.029,7.871l-15.133,8.663L57.606,51.099z M56.251,61.462  l15.134-8.663l-1.029,7.871l-15.134,8.663L56.251,61.462z M69.274,12.836l7.822,16.255l-18.966-2.479L69.274,12.836z M72.748,30.539  l-13.462,7.706l1.217-9.307L72.748,30.539z"/>
    <path stroke="white" d="M54.448,10.397c-8.732,3.579-9.943,12.208-9.99,12.574c-0.071,0.548,0.316,1.049,0.863,1.12  c0.044,0.005,0.087,0.008,0.13,0.008c0.495,0,0.925-0.367,0.99-0.872c0.01-0.078,1.097-7.836,8.766-10.979  c0.511-0.21,0.755-0.794,0.546-1.305C55.544,10.433,54.964,10.188,54.448,10.397z"/>
    <path stroke="white" d="M89.447,19.18c-5.672-1.053-9.301,5.367-9.452,5.641c-0.267,0.484-0.091,1.093,0.393,1.359  c0.153,0.084,0.319,0.124,0.482,0.124c0.353,0,0.694-0.187,0.876-0.517c0.031-0.055,3.054-5.445,7.333-4.641  c0.541,0.094,1.065-0.257,1.167-0.8S89.99,19.281,89.447,19.18z"/>
    <path stroke="white" d="M19.107,28.017c0.191,0.3,0.515,0.463,0.845,0.463c0.183,0,0.369-0.05,0.535-0.155c0.466-0.296,0.604-0.913,0.309-1.379  c-0.167-0.265-4.169-6.461-9.775-5.059c-0.536,0.134-0.861,0.677-0.728,1.213c0.134,0.536,0.679,0.86,1.213,0.727  C15.714,22.776,19.073,27.964,19.107,28.017z"/>
    <path stroke="white" d="M14.881,17.26l2.724,0.843l0.857,2.72c0.114,0.362,0.425,0.629,0.801,0.688c0.051,0.008,0.102,0.012,0.153,0.012  c0.323,0,0.629-0.156,0.818-0.425l1.634-2.327l2.846,0.031c0.004,0,0.008,0,0.011,0c0.376,0,0.722-0.212,0.892-0.548  c0.172-0.34,0.136-0.748-0.092-1.053l-1.712-2.28l0.904-2.699c0.121-0.36,0.026-0.759-0.243-1.026  c-0.27-0.269-0.669-0.36-1.028-0.237l-2.693,0.919l-2.29-1.7c-0.306-0.228-0.715-0.262-1.053-0.087  c-0.339,0.174-0.55,0.525-0.543,0.906l0.047,2.848l-2.317,1.646c-0.311,0.221-0.469,0.598-0.408,0.974  C14.249,16.839,14.518,17.147,14.881,17.26z M18.502,15.168c0.269-0.191,0.426-0.503,0.421-0.832L18.9,12.992l1.082,0.803  c0.264,0.195,0.608,0.25,0.919,0.144l1.277-0.436l-0.429,1.28c-0.104,0.312-0.049,0.655,0.148,0.918l0.809,1.077l-1.343-0.015  c-0.355-0.005-0.64,0.155-0.83,0.425l-0.773,1.102l-0.406-1.289c-0.099-0.312-0.345-0.558-0.658-0.654l-1.292-0.399L18.502,15.168z"/>
    <path stroke="white" d="M87.436,38.446l0.904-2.699c0.121-0.36,0.026-0.759-0.243-1.026c-0.27-0.269-0.668-0.36-1.028-0.237l-2.693,0.919l-2.29-1.7  c-0.307-0.228-0.714-0.262-1.053-0.087c-0.339,0.174-0.55,0.525-0.543,0.906l0.047,2.848l-2.317,1.647  c-0.31,0.221-0.468,0.599-0.408,0.974c0.061,0.376,0.329,0.685,0.692,0.797l2.724,0.842l0.856,2.72  c0.114,0.363,0.425,0.63,0.801,0.688c0.051,0.008,0.102,0.012,0.153,0.012c0.323,0,0.629-0.156,0.818-0.426l1.634-2.327l2.847,0.032  c0.377,0.003,0.731-0.208,0.903-0.548s0.136-0.748-0.092-1.053L87.436,38.446z M84.986,40.29c-0.326-0.048-0.64,0.154-0.83,0.426  l-0.773,1.101l-0.405-1.288c-0.099-0.313-0.345-0.559-0.659-0.655l-1.291-0.399l1.097-0.779c0.269-0.191,0.426-0.503,0.42-0.832  l-0.022-1.344l1.082,0.803c0.264,0.196,0.608,0.249,0.919,0.144l1.277-0.436l-0.429,1.28c-0.104,0.312-0.049,0.655,0.148,0.918  l0.81,1.078L84.986,40.29z"/>
    <path stroke="white" d="M23.933,56.446c0.172-0.34,0.136-0.748-0.092-1.053l-1.712-2.281l0.904-2.699c0.121-0.36,0.026-0.759-0.243-1.026  c-0.27-0.269-0.668-0.359-1.028-0.237l-2.693,0.919l-2.29-1.7c-0.306-0.228-0.715-0.262-1.053-0.087  c-0.339,0.174-0.549,0.525-0.543,0.906l0.048,2.848l-2.317,1.647c-0.31,0.221-0.468,0.599-0.408,0.974  c0.061,0.376,0.329,0.685,0.692,0.797l2.724,0.842l0.857,2.721c0.114,0.362,0.424,0.629,0.801,0.688  c0.051,0.008,0.102,0.012,0.153,0.012c0.323,0,0.629-0.156,0.818-0.426l1.634-2.327l2.846,0.032  C23.434,56.976,23.761,56.786,23.933,56.446z M19.679,54.956c-0.004,0-0.007,0-0.011,0c-0.326,0-0.631,0.158-0.818,0.426  l-0.773,1.101l-0.406-1.289c-0.099-0.312-0.345-0.558-0.659-0.654L15.72,54.14l1.097-0.779c0.269-0.191,0.426-0.503,0.42-0.832  l-0.022-1.344l1.082,0.803c0.264,0.195,0.607,0.25,0.919,0.144l1.277-0.436l-0.429,1.28c-0.104,0.312-0.049,0.655,0.148,0.918  l0.809,1.078L19.679,54.956z"/>
</svg>